<svg width="1024" height="1024" viewBox="0 0 1024 1024" fill="none" xmlns="http://www.w3.org/2000/svg">
  <!-- Background circle with fun gradient -->
  <defs>
    <linearGradient id="bgGradient" x1="0%" y1="0%" x2="100%" y2="100%">
      <stop offset="0%" style="stop-color:#8B5CF6;stop-opacity:1" />
      <stop offset="50%" style="stop-color:#EC4899;stop-opacity:1" />
      <stop offset="100%" style="stop-color:#F59E0B;stop-opacity:1" />
    </linearGradient>
    <linearGradient id="bubbleGradient" x1="0%" y1="0%" x2="100%" y2="100%">
      <stop offset="0%" style="stop-color:#10B981;stop-opacity:1" />
      <stop offset="100%" style="stop-color:#3B82F6;stop-opacity:1" />
    </linearGradient>
    <linearGradient id="starGradient" x1="0%" y1="0%" x2="100%" y2="100%">
      <stop offset="0%" style="stop-color:#FCD34D;stop-opacity:1" />
      <stop offset="100%" style="stop-color:#F97316;stop-opacity:1" />
    </linearGradient>
  </defs>
  
  <!-- Main background circle -->
  <circle cx="512" cy="512" r="480" fill="url(#bgGradient)" stroke="#FFFFFF" stroke-width="12"/>
  
  <!-- Big speech bubble (main) -->
  <path d="M 200 300 Q 200 200 300 200 L 724 200 Q 824 200 824 300 L 824 500 Q 824 600 724 600 L 300 600 Q 200 600 200 500 Z" fill="url(#bubbleGradient)" rx="20"/>
  <path d="M 400 600 L 400 700 L 300 600" fill="url(#bubbleGradient)"/>
  
  <!-- Heart in center -->
  <path d="M 512 350 C 512 350 470 310 430 350 C 390 390 470 450 512 500 C 554 450 634 390 594 350 C 554 310 512 350 512 350 Z" fill="#EC4899"/>
  
  <!-- Stars around the heart -->
  <path d="M 350 250 L 360 240 L 370 250 L 360 260 Z" fill="url(#starGradient)"/>
  <path d="M 674 250 L 684 240 L 694 250 L 684 260 Z" fill="url(#starGradient)"/>
  <path d="M 350 650 L 360 640 L 370 650 L 360 660 Z" fill="url(#starGradient)"/>
  <path d="M 674 650 L 684 640 L 694 650 L 684 660 Z" fill="url(#starGradient)"/>
  
  <!-- Fun emoji dots representing words -->
  <circle cx="280" cy="320" r="8" fill="#FFFFFF"/>
  <circle cx="300" cy="320" r="8" fill="#FFFFFF"/>
  <circle cx="320" cy="320" r="8" fill="#FFFFFF"/>
  
  <circle cx="704" cy="320" r="8" fill="#FFFFFF"/>
  <circle cx="724" cy="320" r="8" fill="#FFFFFF"/>
  <circle cx="744" cy="320" r="8" fill="#FFFFFF"/>
  
  <circle cx="280" cy="480" r="8" fill="#FFFFFF"/>
  <circle cx="300" cy="480" r="8" fill="#FFFFFF"/>
  <circle cx="320" cy="480" r="8" fill="#FFFFFF"/>
  <circle cx="340" cy="480" r="8" fill="#FFFFFF"/>
  
  <circle cx="684" cy="480" r="8" fill="#FFFFFF"/>
  <circle cx="704" cy="480" r="8" fill="#FFFFFF"/>
  <circle cx="724" cy="480" r="8" fill="#FFFFFF"/>
  <circle cx="744" cy="480" r="8" fill="#FFFFFF"/>
  
  <!-- Sparkles for extra fun -->
  <path d="M 150 150 L 160 140 L 170 150 L 160 160 Z" fill="#FFFFFF" opacity="0.9"/>
  <path d="M 874 150 L 884 140 L 894 150 L 884 160 Z" fill="#FFFFFF" opacity="0.9"/>
  <path d="M 150 850 L 160 840 L 170 850 L 160 860 Z" fill="#FFFFFF" opacity="0.9"/>
  <path d="M 874 850 L 884 840 L 894 850 L 884 860 Z" fill="#FFFFFF" opacity="0.9"/>
  
  <!-- Small hearts for decoration -->
  <path d="M 200 200 C 200 200 180 180 160 200 C 140 220 180 260 200 240 C 220 260 260 220 240 200 C 220 180 200 200 200 200 Z" fill="#F472B6" opacity="0.7"/>
  <path d="M 824 200 C 824 200 804 180 784 200 C 764 220 804 260 824 240 C 844 260 884 220 864 200 C 844 180 824 200 824 200 Z" fill="#F472B6" opacity="0.7"/>
</svg>
