<svg width="1024" height="1024" viewBox="0 0 1024 1024" fill="none" xmlns="http://www.w3.org/2000/svg">
  <!-- Background circle with gradient -->
  <defs>
    <linearGradient id="bgGradient" x1="0%" y1="0%" x2="100%" y2="100%">
      <stop offset="0%" style="stop-color:#4F46E5;stop-opacity:1" />
      <stop offset="100%" style="stop-color:#7C3AED;stop-opacity:1" />
    </linearGradient>
    <linearGradient id="bubbleGradient" x1="0%" y1="0%" x2="100%" y2="100%">
      <stop offset="0%" style="stop-color:#F59E0B;stop-opacity:1" />
      <stop offset="100%" style="stop-color:#EF4444;stop-opacity:1" />
    </linearGradient>
    <linearGradient id="heartGradient" x1="0%" y1="0%" x2="100%" y2="100%">
      <stop offset="0%" style="stop-color:#EC4899;stop-opacity:1" />
      <stop offset="100%" style="stop-color:#F97316;stop-opacity:1" />
    </linearGradient>
  </defs>
  
  <!-- Main background circle -->
  <circle cx="512" cy="512" r="480" fill="url(#bgGradient)" stroke="#E5E7EB" stroke-width="8"/>
  
  <!-- Speech bubble 1 (top left) -->
  <path d="M 200 300 Q 200 250 250 250 L 350 250 Q 400 250 400 300 L 400 350 Q 400 400 350 400 L 250 400 Q 200 400 200 350 Z" fill="url(#bubbleGradient)"/>
  <path d="M 300 400 L 300 450 L 250 400" fill="url(#bubbleGradient)"/>
  
  <!-- Speech bubble 2 (top right) -->
  <path d="M 624 300 Q 624 250 674 250 L 774 250 Q 824 250 824 300 L 824 350 Q 824 400 774 400 L 674 400 Q 624 400 624 350 Z" fill="url(#bubbleGradient)"/>
  <path d="M 724 400 L 724 450 L 774 400" fill="url(#bubbleGradient)"/>
  
  <!-- Speech bubble 3 (bottom) -->
  <path d="M 350 500 Q 350 450 400 450 L 624 450 Q 674 450 674 500 L 674 550 Q 674 600 624 600 L 400 600 Q 350 600 350 550 Z" fill="url(#bubbleGradient)"/>
  <path d="M 512 600 L 512 650 L 462 600" fill="url(#bubbleGradient)"/>
  
  <!-- Heart symbol in center -->
  <path d="M 512 400 C 512 400 480 370 450 400 C 420 430 480 480 512 500 C 544 480 604 430 574 400 C 544 370 512 400 512 400 Z" fill="url(#heartGradient)"/>
  
  <!-- Small decorative elements -->
  <circle cx="300" cy="320" r="15" fill="white" opacity="0.8"/>
  <circle cx="750" cy="320" r="15" fill="white" opacity="0.8"/>
  <circle cx="512" cy="520" r="20" fill="white" opacity="0.8"/>
  
  <!-- Sparkle effects -->
  <path d="M 150 200 L 160 190 L 170 200 L 160 210 Z" fill="white" opacity="0.9"/>
  <path d="M 874 200 L 884 190 L 894 200 L 884 210 Z" fill="white" opacity="0.9"/>
  <path d="M 150 800 L 160 790 L 170 800 L 160 810 Z" fill="white" opacity="0.9"/>
  <path d="M 874 800 L 884 790 L 894 800 L 884 810 Z" fill="white" opacity="0.9"/>
  
  <!-- Text representation dots -->
  <circle cx="280" cy="325" r="4" fill="white"/>
  <circle cx="290" cy="325" r="4" fill="white"/>
  <circle cx="300" cy="325" r="4" fill="white"/>
  
  <circle cx="730" cy="325" r="4" fill="white"/>
  <circle cx="740" cy="325" r="4" fill="white"/>
  <circle cx="750" cy="325" r="4" fill="white"/>
  
  <circle cx="450" cy="525" r="4" fill="white"/>
  <circle cx="460" cy="525" r="4" fill="white"/>
  <circle cx="470" cy="525" r="4" fill="white"/>
  <circle cx="480" cy="525" r="4" fill="white"/>
  <circle cx="490" cy="525" r="4" fill="white"/>
  <circle cx="500" cy="525" r="4" fill="white"/>
  <circle cx="510" cy="525" r="4" fill="white"/>
  <circle cx="520" cy="525" r="4" fill="white"/>
  <circle cx="530" cy="525" r="4" fill="white"/>
  <circle cx="540" cy="525" r="4" fill="white"/>
  <circle cx="550" cy="525" r="4" fill="white"/>
  <circle cx="560" cy="525" r="4" fill="white"/>
  <circle cx="570" cy="525" r="4" fill="white"/>
  <circle cx="580" cy="525" r="4" fill="white"/>
</svg>
