<svg width="1024" height="1024" viewBox="0 0 1024 1024" fill="none" xmlns="http://www.w3.org/2000/svg">
  <!-- Fun gradients -->
  <defs>
    <linearGradient id="bgGradient" x1="0%" y1="0%" x2="100%" y2="100%">
      <stop offset="0%" style="stop-color:#A855F7;stop-opacity:1" />
      <stop offset="25%" style="stop-color:#EC4899;stop-opacity:1" />
      <stop offset="50%" style="stop-color:#F59E0B;stop-opacity:1" />
      <stop offset="75%" style="stop-color:#10B981;stop-opacity:1" />
      <stop offset="100%" style="stop-color:#3B82F6;stop-opacity:1" />
    </linearGradient>
    <linearGradient id="bubbleGradient" x1="0%" y1="0%" x2="100%" y2="100%">
      <stop offset="0%" style="stop-color:#FCD34D;stop-opacity:1" />
      <stop offset="100%" style="stop-color:#F97316;stop-opacity:1" />
    </linearGradient>
    <linearGradient id="heartGradient" x1="0%" y1="0%" x2="100%" y2="100%">
      <stop offset="0%" style="stop-color:#F472B6;stop-opacity:1" />
      <stop offset="100%" style="stop-color:#EC4899;stop-opacity:1" />
    </linearGradient>
    <linearGradient id="starGradient" x1="0%" y1="0%" x2="100%" y2="100%">
      <stop offset="0%" style="stop-color:#FCD34D;stop-opacity:1" />
      <stop offset="100%" style="stop-color:#F59E0B;stop-opacity:1" />
    </linearGradient>
  </defs>
  
  <!-- Main background circle with rainbow effect -->
  <circle cx="512" cy="512" r="480" fill="url(#bgGradient)" stroke="#FFFFFF" stroke-width="16"/>
  
  <!-- Big fun speech bubble -->
  <path d="M 180 250 Q 180 180 250 180 L 774 180 Q 844 180 844 250 L 844 550 Q 844 620 774 620 L 250 620 Q 180 620 180 550 Z" fill="url(#bubbleGradient)" rx="25"/>
  <path d="M 400 620 L 400 720 L 300 620" fill="url(#bubbleGradient)"/>
  
  <!-- Big heart in center -->
  <path d="M 512 300 C 512 300 460 250 410 300 C 360 350 460 420 512 480 C 564 420 664 350 614 300 C 564 250 512 300 512 300 Z" fill="url(#heartGradient)"/>
  
  <!-- Fun stars around -->
  <path d="M 300 200 L 320 180 L 340 200 L 320 220 Z" fill="url(#starGradient)"/>
  <path d="M 724 200 L 744 180 L 764 200 L 744 220 Z" fill="url(#starGradient)"/>
  <path d="M 300 700 L 320 680 L 340 700 L 320 720 Z" fill="url(#starGradient)"/>
  <path d="M 724 700 L 744 680 L 764 700 L 744 720 Z" fill="url(#starGradient)"/>
  
  <!-- Sparkles everywhere! -->
  <path d="M 120 120 L 130 110 L 140 120 L 130 130 Z" fill="#FFFFFF" opacity="0.9"/>
  <path d="M 904 120 L 914 110 L 924 120 L 914 130 Z" fill="#FFFFFF" opacity="0.9"/>
  <path d="M 120 904 L 130 894 L 140 904 L 130 914 Z" fill="#FFFFFF" opacity="0.9"/>
  <path d="M 904 904 L 914 894 L 924 904 L 914 914 Z" fill="#FFFFFF" opacity="0.9"/>
  
  <!-- More sparkles -->
  <path d="M 200 150 L 210 140 L 220 150 L 210 160 Z" fill="#FCD34D" opacity="0.8"/>
  <path d="M 824 150 L 834 140 L 844 150 L 834 160 Z" fill="#FCD34D" opacity="0.8"/>
  <path d="M 200 874 L 210 864 L 220 874 L 210 884 Z" fill="#FCD34D" opacity="0.8"/>
  <path d="M 824 874 L 834 864 L 844 874 L 834 884 Z" fill="#FCD34D" opacity="0.8"/>
  
  <!-- Fun emoji dots representing words and communication -->
  <circle cx="250" cy="280" r="10" fill="#FFFFFF"/>
  <circle cx="270" cy="280" r="10" fill="#FFFFFF"/>
  <circle cx="290" cy="280" r="10" fill="#FFFFFF"/>
  <circle cx="310" cy="280" r="10" fill="#FFFFFF"/>
  
  <circle cx="714" cy="280" r="10" fill="#FFFFFF"/>
  <circle cx="734" cy="280" r="10" fill="#FFFFFF"/>
  <circle cx="754" cy="280" r="10" fill="#FFFFFF"/>
  <circle cx="774" cy="280" r="10" fill="#FFFFFF"/>
  
  <circle cx="250" cy="500" r="10" fill="#FFFFFF"/>
  <circle cx="270" cy="500" r="10" fill="#FFFFFF"/>
  <circle cx="290" cy="500" r="10" fill="#FFFFFF"/>
  <circle cx="310" cy="500" r="10" fill="#FFFFFF"/>
  <circle cx="330" cy="500" r="10" fill="#FFFFFF"/>
  
  <circle cx="694" cy="500" r="10" fill="#FFFFFF"/>
  <circle cx="714" cy="500" r="10" fill="#FFFFFF"/>
  <circle cx="734" cy="500" r="10" fill="#FFFFFF"/>
  <circle cx="754" cy="500" r="10" fill="#FFFFFF"/>
  <circle cx="774" cy="500" r="10" fill="#FFFFFF"/>
  
  <!-- Small decorative hearts -->
  <path d="M 180 180 C 180 180 160 160 140 180 C 120 200 160 240 180 220 C 200 240 240 200 220 180 C 200 160 180 180 180 180 Z" fill="#F472B6" opacity="0.8"/>
  <path d="M 844 180 C 844 180 824 160 804 180 C 784 200 824 240 844 220 C 864 240 904 200 884 180 C 864 160 844 180 844 180 Z" fill="#F472B6" opacity="0.8"/>
  
  <!-- Fun circles representing learning -->
  <circle cx="180" cy="400" r="15" fill="#10B981" opacity="0.8"/>
  <circle cx="844" cy="400" r="15" fill="#3B82F6" opacity="0.8"/>
  
  <!-- Rainbow dots for extra fun -->
  <circle cx="512" cy="200" r="8" fill="#EF4444"/>
  <circle cx="512" cy="220" r="8" fill="#F97316"/>
  <circle cx="512" cy="240" r="8" fill="#FCD34D"/>
  <circle cx="512" cy="260" r="8" fill="#10B981"/>
  <circle cx="512" cy="280" r="8" fill="#3B82F6"/>
  <circle cx="512" cy="300" r="8" fill="#8B5CF6"/>
</svg>
